<?xml version="1.0"?>
<svg xmlns="http://www.w3.org/2000/svg" height="512px" viewBox="-87 0 512 512" width="512px"><path d="m234.046875 334.183594c18.046875-18.046875 18.046875-47.414063 0-65.460938-18.496094-18.496094-48.789063-18.128906-66.789063 1.398438-18.066406-16.203125-46.003906-15.820313-63.585937 1.765625-18.089844 18.089843-18.09375 47.367187-.003906 65.460937 18.472656 18.46875 48.773437 18.167969 66.78125-1.410156 8.5 7.628906 19.359375 11.800781 30.867187 11.800781 12.367188 0 23.988282-4.8125 32.730469-13.554687zm-119.769531-7.445313c-10.019532-10.019531-12.21875-25.632812-4.664063-38.304687l42.96875 42.96875c-11.351562 6.972656-27.484375 6.160156-38.304687-4.664063zm42.621094-12.230469-36.679688-36.679687c12.019531-7.289063 28.175781-5.816406 38.6875 5.058594-4.476562 10.214843-4.96875 21.488281-2.007812 31.621093zm66.542968-35.179687c10.367188 10.371094 11.917969 26.269531 4.65625 38.296875l-42.960937-42.960938c11.945312-7.242187 27.847656-5.792968 38.304687 4.664063zm-48.910156 5.945313 42.96875 42.964843c-28.332031 17.136719-59.535156-15.59375-42.96875-42.964843zm0 0" fill="#434a53"/><path d="m186.359375 426.648438h79.480469c8.617187 0 15.628906-7.011719 15.628906-15.628907v-215c0-8.617187-7.011719-15.625-15.628906-15.625h-193.960938c-8.617187 0-15.628906 7.007813-15.628906 15.625v215c0 8.617188 7.011719 15.628907 15.628906 15.628907h79.480469c4.140625 0 7.5-3.359376 7.5-7.5 0-4.140626-3.359375-7.5-7.5-7.5h-79.480469c-.347656 0-.628906-.28125-.628906-.628907v-215c0-.34375.28125-.625.628906-.625h193.960938c.34375 0 .625.28125.625.625v215c0 .347657-.28125.628907-.625.628907h-79.480469c-4.144531 0-7.5 3.359374-7.5 7.5 0 4.140624 3.359375 7.5 7.5 7.5zm0 0" fill="#434a53"/><path d="m330.21875 296.847656c4.140625 0 7.5-3.359375 7.5-7.5v-139.871094c0-24.453124-19.894531-44.347656-44.347656-44.347656h-11.902344v-21.222656h3.050781c9.5625 0 17.347657-7.78125 17.347657-17.347656v-49.210938c0-9.566406-7.785157-17.347656-17.351563-17.347656-2.035156 0-228.945313 0-231.316406 0-9.566407 0-17.347657 7.78125-17.347657 17.347656v49.210938c0 9.5625 7.78125 17.347656 17.347657 17.347656h3.050781v21.222656h-11.902344c-24.453125 0-44.347656 19.894532-44.347656 44.347656v318.175782c0 24.496094 19.964844 44.347656 44.347656 44.347656h249.023438c24.324218 0 44.347656-19.796875 44.347656-44.347656v-143.300782c0-4.144531-3.359375-7.503906-7.5-7.503906-4.144531 0-7.503906 3.359375-7.503906 7.503906v143.300782c0 1.105468-.066406 2.199218-.183594 3.273437h-307.34375c-.121094-1.078125-.1875-2.167969-.1875-3.273437v-318.175782c0-16.179687 13.164062-29.34375 29.347656-29.34375h249.023438c16.183594 0 29.34375 13.164063 29.34375 29.34375v139.871094c0 4.140625 3.359375 7.5 7.503906 7.5zm-13.960938 189.078125c-5.6875 7.0625-14.214843 11.074219-22.886718 11.074219h-249.023438c-8.652344 0-17.1875-3.996094-22.890625-11.074219zm-139.898437-470.925781h47.753906v53.90625h-47.753906zm-62.753906 0h47.753906v53.90625h-47.753906zm-60.40625 53.90625c-1.292969 0-2.347657-1.054688-2.347657-2.347656v-49.210938c0-1.292968 1.054688-2.347656 2.347657-2.347656h45.40625v53.90625c-9.175781 0-35.902344 0-45.40625 0zm213.265625 36.222656h-195.214844v-21.222656h195.214844zm-27.351563-36.222656v-53.90625h45.402344c1.296875 0 2.351563 1.054688 2.351563 2.347656v49.210938c0 1.292968-1.054688 2.347656-2.351563 2.347656-9.523437 0-36.277344 0-45.402344 0zm0 0" fill="#434a53"/></svg>
