<?xml version="1.0" encoding="utf-8"?>
<!-- Generator: Adobe Illustrator 22.1.0, SVG Export Plug-In . SVG Version: 6.00 Build 0)  -->
<svg id="archive" version="1.1" xmlns="http://www.w3.org/2000/svg" xmlns:xlink="http://www.w3.org/1999/xlink" x="0px" y="0px"
	 viewBox="0 0 512 512" style="enable-background:new 0 0 512 512;" xml:space="preserve">
<style type="text/css">
	.st0{fill:#434A53;}
</style>
<path class="st0" d="M332.8,328.2c-1.5,0-3-0.4-4.3-1.2L4.3,139.3C1.6,137.8,0,135,0,132c0-3,1.6-5.8,4.1-7.4L174.8,22.2
	c2.7-1.6,6-1.6,8.7-0.1l324.3,187.7c2.6,1.5,4.2,4.3,4.3,7.3c0,3-1.6,5.8-4.1,7.4L337.2,327C335.8,327.8,334.3,328.2,332.8,328.2z
	 M25.3,131.8l307.4,178l153.9-92.4l-307.4-178L25.3,131.8z"/>
<path class="st0" d="M179.2,328.2c-1.5,0-3-0.4-4.4-1.2L4.1,224.6C1.5,223,0,220.2,0,217.2c0-3,1.6-5.8,4.3-7.3L328.5,22.2
	c2.7-1.6,6-1.5,8.7,0.1l170.7,102.4c2.6,1.6,4.2,4.4,4.1,7.4c0,3-1.6,5.8-4.3,7.3L183.5,327.1C182.2,327.8,180.7,328.2,179.2,328.2z
	 M25.3,217.4l153.9,92.4l307.4-178L332.7,39.4L25.3,217.4z"/>
<path class="st0" d="M256,490.3c-1.5,0-3-0.4-4.3-1.2c-2.6-1.5-4.2-4.3-4.2-7.4V275.2c0-3,1.6-5.9,4.3-7.4c2.6-1.5,5.9-1.5,8.5,0
	l72.4,41.9l98.1-58.9c2.6-1.6,5.9-1.6,8.6-0.1c2.7,1.5,4.3,4.4,4.3,7.4v121.2c0,3.1-1.6,5.9-4.3,7.4L260.2,489.2
	C258.9,490,257.5,490.3,256,490.3z M264.5,290v177.1l162.1-92.6V273.3L337.2,327c-2.7,1.6-6,1.6-8.7,0.1L264.5,290z"/>
<path class="st0" d="M256,490.3c-1.5,0-3-0.4-4.4-1.2L80.9,386.7c-2.6-1.5-4.1-4.3-4.1-7.3V263.3c0-3.1,1.7-5.9,4.3-7.4
	c2.7-1.5,6-1.5,8.6,0.1l89.6,53.7l72.4-41.9c2.6-1.5,5.9-1.5,8.5,0c2.6,1.5,4.3,4.3,4.3,7.4v206.6c0,3.1-1.7,5.9-4.3,7.4
	C258.9,490,257.4,490.3,256,490.3z M93.9,374.6l153.6,92.2V290l-64,37c-2.7,1.6-6,1.5-8.7-0.1l-80.9-48.6V374.6z"/>

</svg>
