<?xml version="1.0" encoding="utf-8"?>
<!-- Generator: Adobe Illustrator 22.1.0, SVG Export Plug-In . SVG Version: 6.00 Build 0)  -->
<svg version="1.1" id="Capa_1" xmlns="http://www.w3.org/2000/svg" xmlns:xlink="http://www.w3.org/1999/xlink" x="0px" y="0px"
	 viewBox="0 0 512 512" style="enable-background:new 0 0 512 512;" xml:space="preserve">
<g>
	<g>
		<path class="st0" d="M503.5,349.9h-34.1V256c0-2.3-0.9-4.4-2.5-6l-51.2-51.2l-12.1,12.1l48.7,48.7v90.3H384v-128
			c0-39.3-29.6-71.7-67.7-76.2c15.5-15.5,25-36.8,25-60.3C341.3,38.3,303.1,0,256,0s-85.3,38.3-85.3,85.3c0,24.2,10.1,46,26.4,61.5
			c-34.5,7.5-60.5,38.3-60.5,75v128H68.3v-90.3l48.7-48.7l-12.1-12.1L53.7,250c-1.6,1.6-2.5,3.8-2.5,6v93.9H8.5
			c-4.7,0-8.5,3.8-8.5,8.5v102.4c0,4.7,3.8,8.5,8.5,8.5h145.1v34.1c0,4.7,3.8,8.5,8.5,8.5h187.7c4.7,0,8.5-3.8,8.5-8.5v-34.1h145.1
			c4.7,0,8.5-3.8,8.5-8.5V358.4C512,353.7,508.2,349.9,503.5,349.9z M187.7,85.3c0-37.6,30.6-68.3,68.3-68.3s68.3,30.6,68.3,68.3
			c0,26.6-15.4,49.7-37.6,60.9c-2.1,1-4.2,2-6.4,2.8c-0.4,0.2-0.8,0.3-1.3,0.5c-2.1,0.8-4.2,1.4-6.3,1.9c-0.4,0.1-0.8,0.2-1.1,0.3
			c-2.4,0.6-4.8,1-7.2,1.3c-0.1,0-0.2,0-0.3,0.1c-5.3,0.6-10.6,0.6-15.9,0c-0.1,0-0.2,0-0.3-0.1c-2.4-0.3-4.8-0.7-7.2-1.3
			c-0.4-0.1-0.8-0.2-1.1-0.3c-2.1-0.5-4.3-1.2-6.3-1.9c-0.4-0.2-0.8-0.3-1.3-0.5c-2.2-0.8-4.3-1.8-6.4-2.8
			C203.1,135,187.7,112,187.7,85.3z M293.4,162.1L256,236.9l-37.4-74.8h0.3c0.3,0.2,0.7,0.3,1,0.4c2.2,1,4.4,1.9,6.7,2.8
			c0.6,0.2,1.3,0.5,1.9,0.7c2.4,0.8,4.9,1.5,7.4,2.1c0.5,0.1,0.9,0.3,1.4,0.4c6,1.3,12.2,2.1,18.6,2.1c6.4,0,12.6-0.8,18.6-2.1
			c0.5-0.1,0.9-0.2,1.4-0.4c2.5-0.6,5-1.3,7.4-2.1c0.7-0.2,1.3-0.5,1.9-0.7c2.3-0.8,4.5-1.8,6.7-2.8c0.3-0.2,0.7-0.3,1-0.4H293.4z
			 M153.6,221.9c0-28.4,20-52.3,46.7-58.2l48.1,96.2c1.4,2.9,4.4,4.7,7.6,4.7c3.2,0,6.2-1.8,7.6-4.7l48.7-97.4
			c30.5,2.6,54.6,28.3,54.6,59.5v128H153.6V221.9z M494.9,452.3H349.9c-4.7,0-8.5,3.8-8.5,8.5v34.1H170.7v-34.1
			c0-4.7-3.8-8.5-8.5-8.5H17.1v-85.3h128h230.4h119.5V452.3z"/>
	</g>
</g>
<g>
	<g>
		<rect x="213.3" y="384" class="st0" width="17.1" height="17.1"/>
	</g>
</g>
<g>
	<g>
		<rect x="247.5" y="384" class="st0" width="17.1" height="17.1"/>
	</g>
</g>
<g>
	<g>
		<rect x="281.6" y="384" class="st0" width="17.1" height="17.1"/>
	</g>
</g>
<g>
	<g>
		<rect x="247.5" y="290.1" class="st0" width="17.1" height="17.1"/>
	</g>
</g>
</svg>
