<?xml version="1.0" encoding="utf-8"?>
<!-- Generator: Adobe Illustrator 22.1.0, SVG Export Plug-In . SVG Version: 6.00 Build 0)  -->
<svg version="1.1" id="Capa_1" xmlns="http://www.w3.org/2000/svg" xmlns:xlink="http://www.w3.org/1999/xlink" x="0px" y="0px"
	 viewBox="0 0 512 512" style="enable-background:new 0 0 512 512;" xml:space="preserve">
<path class="st0" d="M504.5,304.2H446c-2,0-3.7-1.7-3.7-3.7V140.2c0-2,1.7-3.7,3.7-3.7h58.5c4.1,0,7.5-3.4,7.5-7.5s-3.4-7.5-7.5-7.5
	H446c-10.3,0-18.7,8.4-18.7,18.7v8.5h-36.9c-4.1,0-7.5,3.4-7.5,7.5s3.4,7.5,7.5,7.5h36.9v113.4h-34.6c-1.9,0-3.7,0.7-5.1,2
	L346.8,317l-50.7,47l-37.9,35.2c-9.4,8.8-24.9,1.7-24.4-11.1c0.1-3.9,1.8-7.5,4.6-10.1l0,0c3-2.8,3.2-7.6,0.4-10.6
	s-7.6-3.2-10.6-0.4l0,0l-9.5,8.9c-9.4,8.8-24.8,1.7-24.4-11.1c0.1-3.9,1.8-7.5,4.6-10.1l0,0c3-2.8,3.2-7.6,0.4-10.6
	s-7.6-3.2-10.6-0.4l0,0L177.6,354c-9.4,8.8-24.9,1.8-24.4-11.1c0.1-3.9,1.8-7.5,4.6-10.1l3.9-3.7l0,0l0,0c3-2.8,3.2-7.6,0.4-10.6
	s-7.6-3.2-10.6-0.4c-2.2,2-4.9,3.3-7.9,3.7c-4.7,0.7-9.4-1-12.7-4.5c-5.5-5.9-5.1-15.1,0.7-20.5l131.6-119.6l38.3,25.5
	c10.9,7.3,24.1,10,37,7.6s24.2-9.7,31.8-20.4l4.8-6.9c4.2-5.9,2.7-14.1-3.2-18.3l-99.4-69.3c-1.3-0.9-2.8-1.3-4.3-1.3h-75.5
	c-5.7,0-11.2,1.7-15.9,5l-7.8,5.5l0,0l-0.1,0.1l-5.3,3.7l0,0l-30.4,21.5l-5.2,3.7c-5.8,4.1-10.5,9.2-14.1,15h-29v-8.5
	c0-10.3-8.4-18.7-18.7-18.7H7.5c-4.1,0-7.5,3.4-7.5,7.5c0,4.1,3.4,7.5,7.5,7.5H66c2,0,3.7,1.7,3.7,3.7V156v0.1v128.4v0.1v15.9
	c0,2-1.7,3.7-3.7,3.7H7.5c-4.1,0-7.5,3.4-7.5,7.5s3.4,7.5,7.5,7.5H66c10.3,0,18.7-8.4,18.7-18.7V292h15.5c0.6,0,1.1,0.5,1.2,1.1
	c0.3,6.7,1.2,26.4,14.4,28.5c1.1,2.1,2.5,4,4.2,5.8c5,5.3,11.7,8.6,18.9,9.3c-0.4,1.8-0.6,3.6-0.7,5.5c-0.3,7.9,2.5,15.4,7.9,21.1
	c5.4,5.8,12.7,9.1,20.5,9.4c4.6,0.2,9-0.7,13.1-2.5c1,5.6,3.5,10.8,7.5,15c5.4,5.8,12.7,9.1,20.6,9.4c3.9,0.1,7.8-0.5,11.4-1.8
	c0.9,5.9,3.5,11.4,7.6,15.8c5.4,5.8,12.7,9.1,20.6,9.4c0.4,0,0.7,0,1.1,0c7.5,0,14.6-2.8,20.1-7.9l37.9-35.2l0,0l41.2-38.2l0,0
	l48-44.6h31.7v8.5c0,10.3,8.4,18.7,18.7,18.7h58.5c4.1,0,7.5-3.4,7.5-7.5S508.6,304.2,504.5,304.2z M116.4,292
	c-0.6-8.4-7.6-15-16.1-15H84.8V163.6h22.8c-0.2,0.8-0.4,1.7-0.5,2.5c-0.8,4.1,1.9,8,6,8.8c0.5,0.1,0.9,0.1,1.4,0.1
	c3.5,0,6.7-2.5,7.4-6.1c0.6-3.2,1.6-6.3,3-9.1c0.2-0.3,0.3-0.5,0.4-0.8c2.7-5.2,6.5-9.7,11.4-13.1l10.3-7.2l28.6-20.2l10-7.1
	c2.1-1.5,4.6-2.3,7.2-2.3H266l95.9,66.8l-3.8,5.4c-10.8,15.5-32.4,19.5-48.1,9l-43.5-28.9c0,0-0.1,0-0.1-0.1c0,0-0.1,0-0.1-0.1
	c-2.8-1.8-6.5-1.5-9,0.8l-96,87.6l0,0l-39.7,36.1C119.4,287.6,117.7,289.8,116.4,292z"/>
</svg>
