<?xml version="1.0" encoding="utf-8"?>
<!-- Generator: Adobe Illustrator 22.1.0, SVG Export Plug-In . SVG Version: 6.00 Build 0)  -->
<svg version="1.1" id="Capa_1" xmlns="http://www.w3.org/2000/svg" xmlns:xlink="http://www.w3.org/1999/xlink" x="0px" y="0px"
	 viewBox="0 0 512 512" style="enable-background:new 0 0 512 512;" xml:space="preserve">
<style type="text/css">
	.st0{fill:#434A53;}
</style>
<g>
	<g>
		<path class="st0" d="M509.5,497.4l-57.2-57.2V281.6c0-23.5-19.1-42.7-42.7-42.7H298.7v-51.2h179.2c3.4,0,6.6-2.1,7.9-5.3
			c1.3-3.2,0.6-6.9-1.9-9.3l-48.7-48.7V42.7c0-23.5-19.1-42.7-42.7-42.7H238.9c-23.5,0-42.7,19.1-42.7,42.7H85.3
			c-23.5,0-42.7,19.1-42.7,42.7v167.1L2.5,292.6c-2.4,2.4-3.2,6.1-1.9,9.3c1.3,3.2,4.4,5.3,7.9,5.3H128v162.1
			c0,23.5,19.1,42.7,42.7,42.7h332.8c3.4,0,6.6-2.1,7.9-5.3C512.7,503.5,511.9,499.9,509.5,497.4z M238.9,17.1h153.6
			c14.1,0,25.6,11.5,25.6,25.6V128c0,2.3,0.9,4.4,2.5,6l36.6,36.6H298.7V85.3c0-23.5-19.1-42.7-42.7-42.7h-42.7
			C213.3,28.6,224.8,17.1,238.9,17.1z M128,281.6v8.5H29.1L57.2,262c1.6-1.6,2.5-3.8,2.5-6V85.3c0-14.1,11.5-25.6,25.6-25.6H256
			c14.1,0,25.6,11.5,25.6,25.6v153.6H170.7C147.1,238.9,128,258.1,128,281.6z M170.7,494.9c-14.1,0-25.6-11.5-25.6-25.6V281.6
			c0-14.1,11.5-25.6,25.6-25.6h238.9c14.1,0,25.6,11.5,25.6,25.6v162.1c0,2.3,0.9,4.4,2.5,6l45.2,45.2H170.7z"/>
	</g>
</g>
</svg>
